<mxfile host="app.diagrams.net" modified="2023-07-13T07:17:51.673Z" agent="Mozilla/5.0 (Windows NT 10.0; Win64; x64) AppleWebKit/537.36 (KHTML, like Gecko) Chrome/114.0.0.0 Safari/537.36" etag="WTvkAM2P-MnWzn8wEChv" version="21.6.2" type="github">
  <diagram name="第 1 页" id="EqIvcVBbqK60LLNWk-H2">
    <mxGraphModel dx="1050" dy="549" grid="1" gridSize="10" guides="1" tooltips="1" connect="1" arrows="1" fold="1" page="1" pageScale="1" pageWidth="827" pageHeight="1169" math="0" shadow="0">
      <root>
        <mxCell id="0" />
        <mxCell id="1" parent="0" />
        <mxCell id="hMUa75q-CvkKy-5lv9HW-16" value="" style="shape=cube;whiteSpace=wrap;html=1;boundedLbl=1;backgroundOutline=1;darkOpacity=0.05;darkOpacity2=0.1;size=21;strokeOpacity=100;fillColor=#d5e8d4;strokeColor=#82b366;" vertex="1" parent="1">
          <mxGeometry x="361" y="446" width="220" height="40" as="geometry" />
        </mxCell>
        <mxCell id="hMUa75q-CvkKy-5lv9HW-17" value="" style="shape=cube;whiteSpace=wrap;html=1;boundedLbl=1;backgroundOutline=1;darkOpacity=0.05;darkOpacity2=0.1;fillColor=#ffe6cc;strokeColor=#d79b00;" vertex="1" parent="1">
          <mxGeometry x="396" y="436" width="80" height="30" as="geometry" />
        </mxCell>
        <mxCell id="hMUa75q-CvkKy-5lv9HW-18" value="" style="shape=cube;whiteSpace=wrap;html=1;boundedLbl=1;backgroundOutline=1;darkOpacity=0.05;darkOpacity2=0.1;fillColor=#ffe6cc;strokeColor=#d79b00;" vertex="1" parent="1">
          <mxGeometry x="467" y="436" width="80" height="30" as="geometry" />
        </mxCell>
        <mxCell id="hMUa75q-CvkKy-5lv9HW-22" value="Core 000" style="text;html=1;strokeColor=none;fillColor=none;align=center;verticalAlign=middle;whiteSpace=wrap;rounded=0;" vertex="1" parent="1">
          <mxGeometry x="408" y="428" width="60" height="33" as="geometry" />
        </mxCell>
        <mxCell id="hMUa75q-CvkKy-5lv9HW-24" value="" style="shape=cube;whiteSpace=wrap;html=1;boundedLbl=1;backgroundOutline=1;darkOpacity=0.05;darkOpacity2=0.1;size=21;strokeOpacity=100;fillColor=#d5e8d4;strokeColor=#82b366;" vertex="1" parent="1">
          <mxGeometry x="370" y="520" width="220" height="40" as="geometry" />
        </mxCell>
        <mxCell id="hMUa75q-CvkKy-5lv9HW-25" value="" style="shape=cube;whiteSpace=wrap;html=1;boundedLbl=1;backgroundOutline=1;darkOpacity=0.05;darkOpacity2=0.1;fillColor=#ffe6cc;strokeColor=#d79b00;" vertex="1" parent="1">
          <mxGeometry x="405" y="510" width="80" height="30" as="geometry" />
        </mxCell>
        <mxCell id="hMUa75q-CvkKy-5lv9HW-26" value="" style="shape=cube;whiteSpace=wrap;html=1;boundedLbl=1;backgroundOutline=1;darkOpacity=0.05;darkOpacity2=0.1;fillColor=#ffe6cc;strokeColor=#d79b00;" vertex="1" parent="1">
          <mxGeometry x="476" y="510" width="80" height="30" as="geometry" />
        </mxCell>
        <mxCell id="hMUa75q-CvkKy-5lv9HW-28" value="Core 011" style="text;html=1;strokeColor=none;fillColor=none;align=center;verticalAlign=middle;whiteSpace=wrap;rounded=0;" vertex="1" parent="1">
          <mxGeometry x="467" y="498" width="100" height="42" as="geometry" />
        </mxCell>
        <mxCell id="hMUa75q-CvkKy-5lv9HW-29" value="Socket" style="swimlane;whiteSpace=wrap;html=1;" vertex="1" parent="1">
          <mxGeometry x="30" y="475" width="241" height="80" as="geometry" />
        </mxCell>
        <mxCell id="hMUa75q-CvkKy-5lv9HW-30" value="主板上的一个物理封装处理器的插座&lt;br&gt;(每个处理器可以包含一个或多个Core)" style="text;html=1;align=center;verticalAlign=middle;resizable=0;points=[];autosize=1;strokeColor=#9673a6;fillColor=#e1d5e7;" vertex="1" parent="hMUa75q-CvkKy-5lv9HW-29">
          <mxGeometry x="5" y="30" width="230" height="40" as="geometry" />
        </mxCell>
        <mxCell id="hMUa75q-CvkKy-5lv9HW-31" value="Core" style="swimlane;whiteSpace=wrap;html=1;" vertex="1" parent="1">
          <mxGeometry x="596" y="350" width="215" height="75" as="geometry" />
        </mxCell>
        <mxCell id="hMUa75q-CvkKy-5lv9HW-33" value="执行程序所需的寄存器、执行单元&lt;br&gt;的完整集合" style="text;html=1;align=center;verticalAlign=middle;resizable=0;points=[];autosize=1;strokeColor=#9673a6;fillColor=#e1d5e7;" vertex="1" parent="hMUa75q-CvkKy-5lv9HW-31">
          <mxGeometry x="8" y="29" width="200" height="40" as="geometry" />
        </mxCell>
        <mxCell id="hMUa75q-CvkKy-5lv9HW-34" value="Threads" style="swimlane;whiteSpace=wrap;html=1;" vertex="1" parent="1">
          <mxGeometry x="386" y="606" width="295" height="99" as="geometry" />
        </mxCell>
        <mxCell id="hMUa75q-CvkKy-5lv9HW-35" value="单个Core中的一个或多个硬件上下文，&lt;br&gt;每个线程具有一个内核的属性，&lt;br&gt;由操作系统在单个逻辑处理器上进行管理和调度" style="text;html=1;align=center;verticalAlign=middle;resizable=0;points=[];autosize=1;strokeColor=#9673a6;fillColor=#e1d5e7;" vertex="1" parent="hMUa75q-CvkKy-5lv9HW-34">
          <mxGeometry x="8" y="31" width="280" height="60" as="geometry" />
        </mxCell>
        <mxCell id="hMUa75q-CvkKy-5lv9HW-37" value="" style="curved=1;endArrow=classic;html=1;rounded=0;exitX=0;exitY=0.25;exitDx=0;exitDy=0;" edge="1" parent="1" source="hMUa75q-CvkKy-5lv9HW-31">
          <mxGeometry width="50" height="50" relative="1" as="geometry">
            <mxPoint x="446" y="476" as="sourcePoint" />
            <mxPoint x="441" y="435" as="targetPoint" />
            <Array as="points">
              <mxPoint x="536" y="356" />
              <mxPoint x="446" y="426" />
            </Array>
          </mxGeometry>
        </mxCell>
        <mxCell id="hMUa75q-CvkKy-5lv9HW-38" value="" style="curved=1;endArrow=classic;html=1;rounded=0;entryX=0;entryY=0;entryDx=10.5;entryDy=29.5;entryPerimeter=0;" edge="1" parent="1">
          <mxGeometry width="50" height="50" relative="1" as="geometry">
            <mxPoint x="251.5" y="510" as="sourcePoint" />
            <mxPoint x="361" y="454.5" as="targetPoint" />
            <Array as="points">
              <mxPoint x="251.5" y="460" />
            </Array>
          </mxGeometry>
        </mxCell>
        <mxCell id="hMUa75q-CvkKy-5lv9HW-40" value="" style="curved=1;endArrow=classic;html=1;rounded=0;entryX=0;entryY=0;entryDx=10.5;entryDy=29.5;entryPerimeter=0;" edge="1" parent="1" source="hMUa75q-CvkKy-5lv9HW-30">
          <mxGeometry width="50" height="50" relative="1" as="geometry">
            <mxPoint x="266" y="595.5" as="sourcePoint" />
            <mxPoint x="375.5" y="540" as="targetPoint" />
            <Array as="points">
              <mxPoint x="266" y="545.5" />
              <mxPoint x="321" y="555" />
            </Array>
          </mxGeometry>
        </mxCell>
        <mxCell id="hMUa75q-CvkKy-5lv9HW-42" value="" style="curved=1;endArrow=classic;html=1;rounded=0;" edge="1" parent="1" source="hMUa75q-CvkKy-5lv9HW-34">
          <mxGeometry width="50" height="50" relative="1" as="geometry">
            <mxPoint x="468.7" y="598" as="sourcePoint" />
            <mxPoint x="467.004347826087" y="535" as="targetPoint" />
            <Array as="points">
              <mxPoint x="518.7" y="598" />
              <mxPoint x="468.7" y="548" />
            </Array>
          </mxGeometry>
        </mxCell>
        <mxCell id="hMUa75q-CvkKy-5lv9HW-43" value="" style="curved=1;endArrow=classic;html=1;rounded=0;" edge="1" parent="1">
          <mxGeometry width="50" height="50" relative="1" as="geometry">
            <mxPoint x="497.5" y="606" as="sourcePoint" />
            <mxPoint x="444.504347826087" y="535" as="targetPoint" />
            <Array as="points">
              <mxPoint x="496.2" y="598" />
              <mxPoint x="446.2" y="548" />
            </Array>
          </mxGeometry>
        </mxCell>
        <mxCell id="hMUa75q-CvkKy-5lv9HW-44" value="Core 001" style="text;html=1;strokeColor=none;fillColor=none;align=center;verticalAlign=middle;whiteSpace=wrap;rounded=0;" vertex="1" parent="1">
          <mxGeometry x="477" y="428" width="60" height="33" as="geometry" />
        </mxCell>
        <mxCell id="hMUa75q-CvkKy-5lv9HW-45" value="Core 010" style="text;html=1;strokeColor=none;fillColor=none;align=center;verticalAlign=middle;whiteSpace=wrap;rounded=0;" vertex="1" parent="1">
          <mxGeometry x="396" y="498" width="100" height="42" as="geometry" />
        </mxCell>
      </root>
    </mxGraphModel>
  </diagram>
</mxfile>
